<?xml version="1.0" standalone="no"?>
<!DOCTYPE svg PUBLIC "-//W3C//DTD SVG 20010904//EN"
 "http://www.w3.org/TR/2001/REC-SVG-20010904/DTD/svg10.dtd">
<svg version="1.0" xmlns="http://www.w3.org/2000/svg"
 width="2000.000000pt" height="2000.000000pt" viewBox="0 0 2000.000000 2000.000000"
 preserveAspectRatio="xMidYMid meet">
<metadata>
Created by potrace 1.11, written by Peter Selinger 2001-2013
</metadata>
<g transform="translate(0.000000,2000.000000) scale(0.100000,-0.100000)"
fill="#000000" stroke="none">
<path d="M0 10005 l0 -7775 10000 0 10000 0 0 7775 0 7775 -10000 0 -10000 0
0 -7775z m15555 4448 c0 -668 4 -1107 9 -1111 5 -3 505 -6 1110 -6 l1101 -1 1
-4442 2 -4443 -7778 0 -7778 0 0 4443 0 4444 1112 0 1111 0 0 -1111 0 -1111
1103 0 c730 0 1106 3 1111 10 5 5 8 505 7 1110 l-1 1100 -1096 1 c-603 0
-1102 3 -1110 6 -12 5 -14 172 -13 1109 1 607 2 1105 3 1106 0 1 2500 1 5554
1 l5552 0 0 -1105z"/>
<path d="M13338 13336 c0 -1 -2 -498 -4 -1106 -1 -608 -3 -1107 -3 -1110 -1
-3 -499 -5 -1108 -5 l-1108 0 -3 -1110 -2 -1111 1109 0 c989 0 1110 2 1113 16
2 8 3 507 2 1108 0 600 2 1093 5 1093 4 1 501 3 1106 4 605 1 1102 3 1105 4 3
0 5 499 5 1109 l0 1107 -1108 1 c-609 0 -1108 0 -1109 0z"/>
<path d="M6666 10005 l0 -1110 1105 -1 c607 -1 1107 -2 1112 -3 4 -1 7 -500 7
-1110 l0 -1109 1110 0 1110 1 0 1107 c0 878 -3 1109 -12 1112 -7 2 -507 3
-1110 3 l-1098 -1 0 1111 0 1110 -1112 0 -1113 0 1 -1110z"/>
</g>
</svg>
